# xmcd
#
# Track frame offsets: 
#        150
#        18617
#        38246
#        54513
#        71866
#        89551
#        104701
#        123698
#        143113
#        161690
#
# Disc length: 2315 seconds
#
# Revision: 0
# Processed by: cddbd v1.5.2PL0 Copyright (c) Steve Scherf et al.
# Submitted via: ExactAudioCopy v1.1
#
DISCID=9809090a
DTITLE=Neil Dover - Neil Dover Country Music
DYEAR=2013
DGENRE=Country
TTITLE0=Midnight Auto Supply
TTITLE1=Lonely
TTITLE2=We Loved
TTITLE3=Superman
TTITLE4=All I need Is You
TTITLE5=Broke But Free
TTITLE6=Now You Get The Picture
TTITLE7=This Goodbye Just Ain't Workin
TTITLE8=Country Music
TTITLE9=Double Down
EXTD=
EXTT0=
EXTT1=
EXTT2=
EXTT3=
EXTT4=
EXTT5=
EXTT6=
EXTT7=
EXTT8=
EXTT9=
PLAYORDER=
